<svg xmlns="http://www.w3.org/2000/svg" xmlns:xlink="http://www.w3.org/1999/xlink" width="15" height="15" viewBox="0 0 15 15">
    <defs>
        <path id="a" d="M9.688 3.438c.687 0 1.25-.563 1.25-1.25 0-.688-.563-1.25-1.25-1.25-.688 0-1.25.562-1.25 1.25 0 .687.562 1.25 1.25 1.25zM3.125 7.5A3.095 3.095 0 0 0 0 10.625a3.095 3.095 0 0 0 3.125 3.125 3.095 3.095 0 0 0 3.125-3.125A3.095 3.095 0 0 0 3.125 7.5zm0 5.313c-1.188 0-2.188-1-2.188-2.188 0-1.188 1-2.188 2.188-2.188 1.188 0 2.188 1 2.188 2.188 0 1.188-1 2.188-2.188 2.188zm3.625-6.25l1.5-1.5.5.5c.813.812 1.875 1.312 3.188 1.312v-1.25a3.105 3.105 0 0 1-2.25-.938L8.5 3.5c-.313-.25-.625-.375-1-.375s-.688.125-.875.375l-1.75 1.75c-.25.25-.375.563-.375.875 0 .375.125.688.375.875l2 1.75v3.125h1.25V8L6.75 6.562zm5.125.937a3.095 3.095 0 0 0-3.125 3.125 3.095 3.095 0 0 0 3.125 3.125A3.095 3.095 0 0 0 15 10.625 3.095 3.095 0 0 0 11.875 7.5zm0 5.313c-1.188 0-2.188-1-2.188-2.188 0-1.188 1-2.188 2.188-2.188 1.188 0 2.188 1 2.188 2.188 0 1.188-1 2.188-2.188 2.188z"/>
    </defs>
    <g fill="none" fill-rule="evenodd">
        <mask id="b" fill="#fff">
            <use xlink:href="#a"/>
        </mask>
        <use fill="#000" fill-rule="nonzero" xlink:href="#a"/>
        <g fill="#0B0B43" mask="url(#b)">
            <path d="M0 0h15v15H0z"/>
        </g>
    </g>
</svg>
