<svg xmlns="http://www.w3.org/2000/svg" xmlns:xlink="http://www.w3.org/1999/xlink" width="30" height="40" viewBox="0 0 30 40">
    <defs>
        <path id="a" d="M13.344 36.584c.362.414.948.419 1.312 0C14.656 36.584 28 21.732 28 14c0-7.732-6.268-14-14-14S0 6.268 0 14s13.344 22.584 13.344 22.584z"/>
        <path id="b" d="M9.688 3.438c.687 0 1.25-.563 1.25-1.25 0-.688-.563-1.25-1.25-1.25-.688 0-1.25.562-1.25 1.25 0 .687.562 1.25 1.25 1.25zM3.125 7.5A3.095 3.095 0 0 0 0 10.625a3.095 3.095 0 0 0 3.125 3.125 3.095 3.095 0 0 0 3.125-3.125A3.095 3.095 0 0 0 3.125 7.5zm0 5.313c-1.188 0-2.188-1-2.188-2.188 0-1.188 1-2.188 2.188-2.188 1.188 0 2.188 1 2.188 2.188 0 1.188-1 2.188-2.188 2.188zm3.625-6.25l1.5-1.5.5.5c.813.812 1.875 1.312 3.188 1.312v-1.25a3.105 3.105 0 0 1-2.25-.938L8.5 3.5c-.313-.25-.625-.375-1-.375s-.688.125-.875.375l-1.75 1.75c-.25.25-.375.563-.375.875 0 .375.125.688.375.875l2 1.75v3.125h1.25V8L6.75 6.562zm5.125.937a3.095 3.095 0 0 0-3.125 3.125 3.095 3.095 0 0 0 3.125 3.125A3.095 3.095 0 0 0 15 10.625 3.095 3.095 0 0 0 11.875 7.5zm0 5.313c-1.188 0-2.188-1-2.188-2.188 0-1.188 1-2.188 2.188-2.188 1.188 0 2.188 1 2.188 2.188 0 1.188-1 2.188-2.188 2.188z"/>
    </defs>
    <g fill="none" fill-rule="evenodd">
        <ellipse cx="15" cy="38" fill="#000" fill-opacity=".2" rx="6" ry="1"/>
        <g transform="translate(1 1)">
            <use fill="#516173" xlink:href="#a"/>
            <path stroke="#000" stroke-opacity=".2" d="M13.715 36.25l.005.005c.164.188.396.189.565-.005.102-.114.295-.333.567-.646.454-.524.96-1.12 1.504-1.78a105.455 105.455 0 0 0 4.565-5.923c1.269-1.78 2.398-3.503 3.351-5.14C26.352 19.188 27.5 16.19 27.5 14 27.5 6.544 21.456.5 14 .5S.5 6.544.5 14c0 2.192 1.147 5.188 3.228 8.76.953 1.638 2.082 3.362 3.35 5.141a105.455 105.455 0 0 0 4.566 5.923 101.8 101.8 0 0 0 2.071 2.426zm-.745.666l-.002-.002.004.005-.002-.003z"/>
        </g>
        <g transform="translate(8 6)">
            <mask id="c" fill="#fff">
                <use xlink:href="#b"/>
            </mask>
            <use fill="#000" fill-rule="nonzero" xlink:href="#b"/>
            <g fill="#FFF" mask="url(#c)">
                <path d="M0 0h15v15H0z"/>
            </g>
        </g>
    </g>
</svg>
